<?xml version="1.0" standalone="no"?>
<!DOCTYPE svg PUBLIC "-//W3C//DTD SVG 20010904//EN"
 "http://www.w3.org/TR/2001/REC-SVG-20010904/DTD/svg10.dtd">
<svg version="1.0" xmlns="http://www.w3.org/2000/svg"
 width="1600.000000pt" height="1275.000000pt" viewBox="0 0 1600.000000 1275.000000"
 preserveAspectRatio="xMidYMid meet">

<g transform="translate(0.000000,1275.000000) scale(0.100000,-0.100000)"
fill="#000000" stroke="none">
<path d="M956 11501 c-8 -12 -164 -123 -200 -141 -17 -8 -81 -64 -143 -125
-171 -167 -263 -251 -319 -294 -91 -70 -131 -138 -106 -179 19 -28 144 -38
304 -23 128 12 166 13 247 1 53 -7 116 -15 141 -17 25 -2 54 -8 65 -13 11 -4
29 -11 40 -14 53 -14 158 -55 168 -65 6 -6 15 -11 19 -11 13 0 182 -81 210
-102 16 -11 56 -31 89 -44 68 -28 139 -87 139 -116 0 -30 -47 -113 -79 -141
-17 -14 -47 -31 -68 -38 -21 -6 -47 -17 -58 -24 -77 -46 -538 -66 -579 -25 -7
7 -1 19 19 36 54 45 69 52 180 88 61 20 119 40 130 45 37 15 115 31 155 31 50
0 61 20 33 58 -25 34 -98 59 -215 72 -51 7 -115 18 -143 26 -64 18 -430 31
-590 22 -66 -5 -144 -15 -173 -23 l-53 -16 7 -35 c5 -28 2 -42 -15 -64 -26
-36 -26 -50 -1 -83 11 -14 20 -28 20 -33 0 -33 168 -319 199 -338 15 -9 81
-132 81 -151 0 -19 31 -82 75 -150 58 -92 164 -249 215 -320 102 -141 246
-262 185 -155 -18 32 -21 164 -3 158 7 -3 17 -31 23 -64 18 -100 30 -107 63
-31 45 103 65 137 118 196 56 61 145 123 224 155 25 10 60 24 79 32 87 38 204
56 348 55 161 -1 203 -10 398 -85 141 -55 213 -91 293 -145 61 -42 206 -197
232 -247 8 -16 34 -58 57 -93 24 -35 43 -68 43 -73 0 -9 9 -22 66 -96 27 -34
64 -99 64 -113 0 -13 100 -139 111 -139 5 0 9 -13 9 -28 0 -16 8 -37 19 -46
10 -9 21 -29 24 -44 3 -15 26 -58 51 -95 25 -38 46 -73 46 -78 0 -8 84 -124
101 -139 3 -3 11 -21 19 -40 8 -19 50 -79 95 -133 44 -54 90 -112 102 -129 12
-16 31 -39 42 -49 12 -11 21 -26 21 -34 0 -14 111 -155 181 -230 21 -22 50
-57 66 -77 15 -21 33 -37 40 -38 6 0 15 -10 19 -22 8 -27 73 -98 89 -98 15 0
55 -42 55 -58 0 -7 6 -12 14 -12 8 0 17 -12 20 -26 7 -28 212 -245 259 -274
15 -9 49 -37 75 -62 38 -36 50 -43 58 -32 10 15 39 10 264 -41 169 -39 180
-40 180 -21 0 9 -26 49 -58 89 -55 67 -80 109 -185 307 -21 41 -45 82 -53 90
-7 9 -35 64 -63 124 -27 59 -54 113 -60 119 -6 6 -11 20 -11 32 0 11 -7 31
-17 44 -9 13 -26 58 -39 100 -12 42 -47 133 -78 203 -31 71 -56 135 -56 144 0
9 -9 33 -19 53 -11 20 -36 85 -56 144 -28 85 -33 112 -24 123 15 18 36 18 46
0 4 -7 19 -16 33 -19 14 -3 63 -20 110 -37 47 -17 99 -35 115 -39 114 -31 282
-108 331 -152 11 -11 28 -19 37 -19 29 0 147 -80 220 -147 37 -35 72 -63 78
-63 5 0 26 -17 47 -37 46 -47 85 -73 110 -73 10 0 58 -38 106 -85 107 -104
128 -110 91 -22 -27 64 -47 191 -48 307 l-2 115 29 3 c16 2 32 -2 37 -9 4 -8
11 -11 14 -7 3 3 -16 23 -43 44 -48 39 -187 189 -317 343 -38 46 -79 93 -90
105 -11 13 -40 47 -65 77 -25 30 -61 70 -80 91 -38 39 -51 56 -76 102 -26 47
-72 106 -172 220 -51 58 -98 118 -104 133 -26 61 -276 343 -304 343 -6 0 -29
19 -49 43 -95 106 -236 248 -257 258 -13 6 -34 26 -48 44 -14 19 -31 35 -38
35 -7 0 -15 7 -18 15 -4 8 -12 15 -20 15 -8 0 -14 4 -14 8 0 5 -12 15 -27 23
-15 8 -54 40 -87 72 -34 33 -80 67 -103 78 -24 10 -43 22 -43 27 0 5 -12 15
-27 23 -16 7 -35 19 -43 26 -22 20 -90 63 -98 63 -4 0 -27 21 -52 46 -25 24
-56 48 -70 51 -14 3 -41 23 -61 44 -20 22 -45 39 -57 39 -29 0 -77 31 -77 50
0 8 -14 22 -31 30 -17 8 -49 30 -71 48 -23 17 -45 32 -51 32 -5 0 -25 11 -45
24 -20 14 -53 28 -72 32 -20 3 -49 17 -65 30 -15 13 -37 24 -47 24 -11 0 -29
11 -41 25 -12 14 -33 25 -46 25 -14 0 -28 5 -31 10 -9 14 -141 80 -161 80 -9
0 -37 11 -63 25 -61 32 -156 75 -167 75 -5 0 -27 9 -49 19 -49 24 -185 67
-240 76 -22 4 -50 13 -63 21 -38 25 -165 74 -190 74 -30 0 -219 72 -262 100
-20 13 -147 70 -156 70 -4 0 -29 18 -55 39 -25 22 -65 50 -88 61 -22 12 -44
26 -47 31 -7 12 -91 12 -98 0z m-52 -317 c9 -3 25 -36 36 -75 12 -38 24 -69
29 -69 4 0 16 30 27 66 10 37 27 72 37 78 36 23 92 -32 122 -122 18 -51 31
-50 44 3 6 25 18 48 26 51 33 13 65 -7 93 -56 15 -27 32 -50 37 -50 6 0 17 15
25 33 13 27 21 33 54 35 39 3 96 -14 96 -28 0 -5 12 -22 26 -39 18 -22 35 -31
55 -31 72 0 117 -21 169 -78 48 -53 53 -55 65 -38 22 29 106 5 155 -45 37 -38
37 -38 55 -19 10 11 24 20 32 20 23 0 71 -29 114 -67 35 -32 43 -35 60 -25 43
27 113 8 157 -42 19 -23 27 -25 61 -20 54 9 102 -10 144 -55 33 -36 39 -38 80
-34 39 5 48 2 81 -27 20 -18 48 -52 62 -76 25 -42 28 -44 74 -44 42 0 52 -4
76 -32 15 -18 36 -52 46 -75 23 -53 36 -61 54 -34 30 42 95 13 135 -59 22 -38
24 -39 64 -33 40 5 45 3 84 -37 22 -23 41 -47 41 -52 0 -6 9 -23 21 -39 18
-25 27 -29 68 -29 40 0 52 -5 80 -34 17 -18 40 -48 49 -67 12 -25 24 -34 44
-36 47 -3 84 -30 126 -95 23 -35 46 -68 52 -75 5 -7 10 -17 10 -23 0 -5 4 -10
10 -10 5 0 7 6 4 14 -3 9 3 17 16 21 28 9 62 -22 102 -92 24 -43 35 -53 57
-53 39 0 69 -26 97 -83 20 -43 32 -55 69 -70 58 -24 107 -80 135 -153 30 -81
58 -124 76 -117 7 3 14 0 14 -5 0 -6 17 -31 38 -55 21 -24 44 -59 51 -78 12
-34 42 -102 64 -148 8 -16 27 -29 59 -38 51 -14 113 -75 173 -168 30 -47 60
-82 174 -200 27 -27 65 -77 86 -110 21 -33 56 -80 80 -105 40 -43 105 -138
105 -154 0 -4 9 -19 20 -33 41 -52 13 -59 -46 -12 -38 30 -135 79 -158 79 -25
0 -154 74 -191 110 -54 51 -124 100 -144 100 -15 0 -134 78 -173 114 -10 8
-41 27 -70 42 -29 15 -66 36 -83 48 -44 31 -248 146 -261 146 -5 0 -23 13 -38
29 -15 16 -64 45 -109 66 -45 21 -91 46 -102 55 -11 10 -42 30 -70 45 -27 15
-57 33 -65 39 -36 30 -109 65 -115 56 -3 -5 16 -34 43 -62 27 -29 59 -71 70
-94 11 -22 28 -47 37 -54 19 -16 66 -107 84 -162 7 -20 18 -42 26 -48 17 -14
77 -203 80 -251 1 -20 13 -54 25 -75 13 -20 27 -56 31 -78 4 -23 12 -66 17
-96 5 -30 15 -56 21 -58 6 -2 18 -16 26 -32 19 -36 47 -173 40 -192 -4 -9 5
-28 18 -44 32 -38 78 -121 76 -137 -4 -35 5 -60 50 -128 26 -41 52 -86 56 -99
4 -14 37 -85 72 -158 36 -73 63 -136 60 -138 -16 -16 -415 374 -448 437 -10
21 -38 51 -62 68 -54 37 -96 96 -104 147 -5 32 -20 53 -89 119 -71 69 -84 86
-90 123 -6 40 -49 92 -75 92 -5 0 -29 28 -54 62 -31 43 -45 72 -45 94 0 23 -7
36 -27 50 -41 26 -56 44 -88 99 -16 28 -34 56 -41 62 -7 7 -15 25 -18 40 -4
16 -21 38 -41 51 -58 40 -88 89 -86 138 1 40 -2 46 -39 70 -59 39 -108 137
-87 172 12 18 1 30 -52 56 -50 26 -89 75 -110 138 -9 27 -25 45 -61 68 -69 44
-116 119 -104 166 7 27 -18 64 -42 64 -16 0 -94 96 -94 115 0 23 -23 65 -35
65 -7 0 -28 16 -48 35 -37 36 -53 72 -44 97 7 21 -11 47 -46 64 -34 18 -87 63
-87 75 0 5 11 20 25 35 33 36 32 42 -12 49 -81 14 -102 27 -185 113 -46 48
-106 107 -134 132 -27 25 -63 60 -79 78 -17 18 -50 52 -75 76 -25 24 -55 56
-66 72 -13 18 -42 36 -72 47 -56 19 -108 58 -117 87 -3 10 -31 31 -61 45 -72
34 -93 56 -87 89 6 30 -9 38 -102 55 -82 15 -120 40 -120 77 0 16 -3 31 -8 33
-4 2 -33 -2 -65 -9 -83 -17 -116 -11 -120 22 -4 34 -17 38 -82 26 -83 -15
-207 25 -180 57 16 19 6 32 -29 40 -37 8 -81 48 -81 73 0 23 74 124 98 134 22
9 47 9 66 2z m-19 -785 l89 -13 -54 -13 c-30 -8 -71 -18 -90 -22 -19 -4 -75
-21 -125 -36 -61 -20 -112 -29 -157 -30 -63 0 -69 2 -102 34 -58 57 -44 78 64
95 48 7 286 -2 375 -15z m-665 -71 c0 -16 -3 -19 -11 -11 -6 6 -8 16 -5 22 11
17 16 13 16 -11z m40 -59 c0 -5 8 -17 18 -27 9 -11 25 -32 34 -48 24 -40 41
-66 53 -80 6 -6 35 -42 65 -80 109 -135 186 -221 292 -324 98 -96 108 -110
122 -162 8 -31 23 -77 34 -101 22 -49 16 -73 -16 -63 -26 9 -196 217 -294 361
-75 110 -108 161 -108 168 0 5 -15 27 -33 50 -42 53 -120 180 -159 259 -10 20
-22 40 -28 43 -5 3 -10 13 -10 22 0 13 3 13 15 3 8 -7 15 -16 15 -21z m1575
-494 c50 -13 103 -28 118 -34 16 -6 39 -11 53 -11 13 0 24 -4 24 -10 0 -5 8
-10 17 -10 13 0 14 -3 5 -12 -8 -8 -15 -8 -25 0 -7 7 -76 19 -153 28 -252 31
-544 -5 -703 -86 -69 -34 -173 -126 -198 -173 -8 -16 -21 -27 -30 -25 -8 2
-33 37 -54 78 -38 73 -43 110 -14 110 8 0 51 17 97 39 120 56 219 92 323 116
127 31 405 25 540 -10z m329 -94 c13 -5 16 -10 8 -15 -15 -9 -63 4 -56 15 6
11 21 11 48 0z m53 -27 c-3 -3 -12 -4 -19 -1 -8 3 -5 6 6 6 11 1 17 -2 13 -5z"/>
<path d="M122 10385 c0 -16 2 -22 5 -12 2 9 2 23 0 30 -3 6 -5 -1 -5 -18z"/>
<path d="M4300 8251 c0 -29 15 -77 46 -148 8 -17 14 -36 14 -42 0 -11 45 -115
120 -277 21 -45 41 -92 45 -105 8 -27 32 -82 81 -186 19 -39 34 -75 34 -80 0
-5 14 -31 31 -59 43 -67 63 -101 127 -224 51 -99 180 -297 222 -343 48 -51 17
-58 -124 -27 -158 36 -175 40 -221 51 -25 7 -48 9 -51 7 -6 -7 72 -55 136 -85
53 -25 87 -60 123 -127 31 -57 31 -56 13 -56 -8 0 -37 27 -65 59 -50 58 -165
141 -195 141 -8 0 -18 5 -21 10 -3 6 -14 10 -25 10 -10 0 -20 9 -24 23 -5 21
-45 47 -73 47 -7 0 20 -30 59 -67 216 -202 302 -307 409 -498 15 -27 33 -61
39 -75 7 -14 21 -43 31 -66 11 -22 29 -85 40 -140 38 -183 14 -477 -48 -576
-13 -21 -23 -41 -23 -44 0 -7 -86 -111 -138 -168 -14 -15 -34 -44 -45 -65 -10
-20 -33 -51 -50 -68 -37 -39 -22 -44 18 -7 31 29 63 28 127 -5 24 -12 40 -15
46 -9 16 16 168 -7 192 -27 12 -11 18 -11 34 0 12 9 25 11 40 5 22 -8 82 -13
137 -11 17 1 28 8 32 19 2 11 17 21 34 25 37 7 114 -2 133 -17 8 -6 29 -19 47
-29 l32 -17 31 30 c29 28 34 30 49 16 9 -8 29 -19 44 -25 15 -6 30 -17 33 -25
8 -22 191 -206 198 -199 3 3 -23 36 -59 72 -176 181 -242 262 -230 282 12 19
154 9 253 -17 313 -83 482 -133 482 -144 0 -4 25 -18 55 -30 55 -22 105 -60
105 -80 0 -6 -12 -15 -26 -20 -22 -9 -24 -13 -14 -25 14 -17 56 -20 65 -5 3 6
17 10 31 10 21 0 24 -3 18 -26 -11 -42 25 -26 44 20 13 34 13 39 0 47 -8 5
-30 42 -48 84 -18 41 -37 75 -41 75 -5 0 -9 6 -9 14 0 28 -38 101 -69 135 -17
18 -31 44 -31 56 0 30 -30 84 -52 90 -9 3 -24 18 -33 33 -10 15 -30 37 -45 49
-20 16 -27 29 -23 43 3 11 -1 27 -8 36 -7 9 -18 26 -24 38 -7 13 -18 20 -32
18 -12 -2 -24 2 -28 8 -4 6 11 10 44 10 43 0 51 3 57 23 4 12 7 28 6 35 -4 15
13 15 41 0 12 -7 60 -14 107 -15 47 -1 99 -3 115 -3 17 -1 56 0 87 3 41 3 61
0 69 -9 6 -8 18 -14 25 -14 8 0 11 -6 8 -15 -7 -18 18 -20 46 -5 13 7 31 6 62
-4 24 -8 63 -18 88 -22 25 -3 79 -17 120 -31 69 -23 79 -30 125 -86 30 -37 50
-72 50 -87 0 -17 6 -26 20 -28 26 -5 113 -63 120 -81 9 -23 -2 -24 -26 -2 -26
24 -51 28 -43 6 9 -22 59 -43 88 -38 15 3 26 1 26 -6 0 -6 5 -11 11 -11 7 0
22 -10 35 -22 53 -53 82 -76 131 -109 29 -19 53 -41 53 -50 0 -9 11 -21 24
-29 14 -7 43 -32 66 -56 22 -23 49 -45 59 -49 10 -3 24 -17 31 -30 7 -14 20
-25 27 -25 18 0 83 -52 83 -66 0 -5 13 -23 30 -39 16 -15 27 -32 24 -36 -2 -4
0 -10 6 -14 5 -3 10 1 10 9 0 22 12 20 38 -5 12 -11 36 -25 52 -31 17 -5 30
-14 30 -19 0 -5 7 -9 15 -9 9 0 18 -7 21 -15 4 -8 10 -15 14 -15 8 0 15 -6 91
-69 20 -17 42 -31 48 -31 6 0 11 -4 11 -9 0 -5 14 -15 32 -22 18 -7 49 -29 69
-49 36 -35 133 -90 157 -90 6 0 12 -4 12 -9 0 -5 9 -11 21 -14 16 -4 19 -11
14 -26 -5 -16 -3 -20 9 -15 11 4 15 2 11 -7 -4 -11 6 -14 42 -14 27 -1 48 -6
51 -13 2 -7 12 -12 23 -12 10 0 24 -9 31 -20 7 -11 20 -20 29 -20 9 0 28 -11
43 -25 15 -14 34 -25 42 -25 9 0 27 -9 41 -20 14 -11 32 -20 39 -20 7 0 19 -6
26 -13 7 -7 45 -25 83 -41 39 -16 77 -35 86 -43 8 -7 25 -13 37 -13 11 0 24
-4 27 -10 3 -6 17 -10 29 -10 13 0 29 -7 36 -15 7 -8 16 -13 20 -10 4 3 10 -2
13 -9 3 -8 21 -16 39 -19 33 -4 33 -4 -5 -5 -31 -2 -38 -6 -35 -19 2 -12 14
-19 38 -21 19 -1 45 -8 57 -14 17 -8 26 -8 37 1 15 13 31 3 98 -66 30 -31 68
-44 68 -23 0 11 -51 60 -62 60 -5 0 -8 5 -8 12 0 6 -19 29 -42 50 -32 28 -50
37 -72 36 -16 -2 -31 3 -34 10 -2 6 -12 12 -22 12 -10 0 -22 5 -25 10 -3 5
-14 10 -23 10 -19 0 -145 61 -150 73 -2 4 -12 7 -23 7 -10 0 -19 5 -19 10 0 6
-10 10 -23 10 -12 0 -31 6 -42 14 -11 7 -42 26 -70 41 -27 16 -65 37 -83 47
-18 10 -37 18 -43 18 -5 0 -19 9 -31 20 -12 11 -28 20 -35 20 -7 0 -28 9 -48
20 -20 11 -42 20 -50 20 -8 0 -15 5 -15 10 0 6 -8 10 -19 10 -10 0 -24 7 -31
15 -7 8 -19 15 -26 15 -8 0 -14 5 -14 10 0 6 -7 10 -15 10 -8 0 -15 3 -15 8 0
4 -17 16 -37 27 -21 11 -49 30 -63 43 -14 12 -30 22 -37 22 -6 0 -13 3 -15 8
-4 9 -125 92 -135 92 -5 0 -25 16 -45 35 -20 19 -39 35 -43 35 -3 0 -31 19
-62 43 -31 23 -68 51 -82 62 -14 11 -51 40 -82 65 -31 25 -72 56 -90 70 -18
14 -47 39 -65 55 -17 17 -47 41 -68 55 -20 14 -41 37 -48 51 -6 14 -23 31 -38
37 -14 7 -36 21 -48 32 -12 11 -25 20 -30 20 -5 0 -25 17 -44 38 -19 20 -54
53 -78 72 -50 41 -241 234 -253 256 -18 31 4 26 37 -9 19 -21 37 -37 40 -37 3
0 21 -15 39 -34 40 -40 84 -67 70 -43 -4 8 -34 39 -66 68 -60 55 -102 112 -93
127 3 5 18 7 34 4 16 -2 32 0 36 6 6 11 -108 27 -124 17 -7 -4 -6 -13 1 -26
23 -45 0 -40 -48 9 -43 44 -55 51 -86 50 -20 -1 -42 4 -49 9 -7 6 -29 11 -49
11 -20 0 -46 5 -57 11 -11 6 -32 11 -46 11 -14 0 -27 4 -31 9 -3 5 -20 12 -38
16 -81 17 -153 46 -174 72 -7 10 -8 25 -2 47 7 25 5 41 -6 62 -8 16 -15 37
-15 46 0 9 -4 20 -10 23 -5 3 -10 17 -10 31 0 13 -9 33 -20 44 -11 11 -20 28
-20 38 0 11 -9 27 -20 37 -12 11 -20 31 -20 51 0 18 -4 36 -10 39 -5 3 -10 17
-10 31 0 13 5 24 10 24 16 0 12 28 -7 48 -38 39 -45 60 -29 89 l14 27 16 -38
c9 -21 16 -44 16 -51 0 -8 9 -10 25 -7 20 3 27 -1 35 -22 13 -34 30 -33 30 2
0 15 7 40 15 56 8 15 15 38 15 50 0 11 7 30 15 40 17 23 20 69 5 94 -6 9 -14
98 -19 197 l-8 180 -2 -142 c-1 -140 -5 -173 -22 -173 -13 0 -76 119 -99 190
-12 36 -30 81 -40 100 -15 30 -40 104 -94 280 -23 74 -40 160 -33 167 4 3 17
-3 30 -14 34 -31 85 -58 94 -49 4 4 3 10 -2 14 -19 14 -43 47 -50 71 -6 20 -4
23 9 18 9 -4 16 -2 16 3 0 6 -5 10 -11 10 -8 0 -10 13 -6 36 4 24 -1 57 -13
95 -11 32 -20 78 -20 101 0 26 -8 55 -20 73 -15 23 -19 40 -14 70 3 22 0 53
-6 70 -10 27 -9 32 15 52 16 14 39 23 61 23 67 0 32 17 -48 23 -64 5 -89 12
-117 31 -31 22 -48 25 -116 26 -44 0 -111 7 -150 15 -38 9 -110 24 -160 34
-49 10 -99 22 -110 26 -45 17 -132 60 -160 79 -39 27 -67 45 -83 52 -24 12
-23 -4 2 -33 14 -15 44 -50 67 -78 78 -92 190 -157 329 -190 160 -37 219 -67
256 -131 24 -41 26 -52 30 -230 3 -102 10 -197 15 -211 5 -13 9 -39 9 -56 0
-28 17 -106 63 -288 8 -30 21 -71 30 -90 21 -47 27 -79 15 -79 -5 0 -25 12
-43 26 -49 37 -79 138 -140 472 -8 45 -15 117 -15 159 0 129 -18 202 -59 246
-30 31 -141 97 -164 97 -4 0 -36 18 -72 40 -36 22 -68 40 -71 40 -3 0 -39 23
-79 50 -69 48 -166 142 -210 203 -11 15 -23 27 -27 27 -21 0 11 -260 44 -355
5 -16 11 -46 13 -65 1 -19 8 -50 16 -67 10 -24 10 -36 2 -44 -16 -16 -42 1
-128 80 -158 147 -475 356 -700 463 -22 10 -47 23 -55 28 -29 18 -106 52 -160
71 -30 11 -75 30 -100 43 -25 13 -66 27 -92 31 l-48 7 0 -31z m1980 -557 c0
-8 -4 -14 -10 -14 -5 0 -10 9 -10 21 0 11 5 17 10 14 6 -3 10 -13 10 -21z
m-820 -174 c0 -5 -13 -10 -30 -10 -16 0 -30 5 -30 10 0 6 14 10 30 10 17 0 30
-4 30 -10z m108 -39 c17 -16 32 -33 32 -38 0 -5 13 -22 29 -39 41 -42 131
-161 131 -174 0 -6 5 -20 12 -33 25 -49 28 -58 28 -86 0 -17 -4 -33 -10 -36
-5 -3 -10 -27 -10 -53 0 -48 -19 -98 -21 -57 0 11 0 42 1 69 1 37 -3 53 -20
71 -17 18 -19 27 -10 49 21 55 18 62 -87 199 -18 23 -33 46 -33 50 0 10 -82
86 -93 87 -5 0 -5 5 -2 10 9 15 17 12 53 -19z m-195 12 c-7 -2 -21 -2 -30 0
-10 3 -4 5 12 5 17 0 24 -2 18 -5z m-114 -74 c-109 -104 -139 -106 -36 -3 34
35 71 64 81 64 14 0 1 -17 -45 -61z m256 -48 c-23 -5 -31 -14 -41 -46 -16 -57
-51 -112 -74 -118 -27 -7 -27 29 0 89 24 51 70 84 115 83 l30 -1 -30 -7z
m-387 -63 c-17 -25 -58 -55 -58 -42 0 16 45 64 59 64 11 0 11 -4 -1 -22z
m1189 -60 c-2 -13 -4 -3 -4 22 0 25 2 35 4 23 2 -13 2 -33 0 -45z m-697 10 c0
-21 -131 -141 -142 -130 -23 23 29 113 76 132 31 13 66 12 66 -2z m-571 -52
c-34 -30 -54 -72 -54 -115 0 -42 35 -121 76 -170 31 -38 42 -84 15 -62 -25 21
-96 136 -111 182 -13 38 -13 51 -3 82 16 44 77 119 91 110 6 -3 -1 -16 -14
-27z m1300 -75 c1 -13 14 -58 30 -100 15 -42 34 -94 41 -116 7 -22 37 -92 68
-155 30 -63 59 -125 65 -137 14 -31 2 -40 -23 -18 -25 23 -113 196 -129 255
-21 77 -52 183 -68 236 -11 33 -13 61 -8 80 l8 29 7 -25 c5 -14 8 -36 9 -49z
m-1059 -16 c5 -14 17 -25 27 -25 16 0 143 -126 143 -143 0 -4 10 -28 22 -53
19 -41 24 -45 49 -42 25 4 28 1 32 -31 2 -20 -1 -42 -7 -50 -15 -19 -86 -51
-114 -51 -13 0 -20 -4 -17 -10 3 -5 21 -10 40 -10 26 0 38 -7 55 -31 12 -16
20 -33 17 -35 -3 -3 -40 11 -83 32 -77 37 -143 49 -151 28 -2 -6 28 -26 67
-45 38 -19 70 -37 70 -41 0 -27 -99 13 -142 57 -13 13 -36 27 -51 30 -32 8
-137 108 -137 131 0 10 12 4 38 -20 20 -20 57 -42 81 -51 41 -14 46 -14 74 4
29 18 30 18 49 -1 24 -24 68 -17 116 19 36 27 39 39 15 65 -20 22 -33 23 -33
3 0 -8 -4 -15 -9 -15 -19 0 -29 27 -28 76 1 45 -3 55 -28 77 -16 13 -34 23
-40 21 -5 -2 -25 -26 -43 -52 -39 -57 -110 -118 -122 -106 -5 5 -4 28 2 52 9
35 21 51 64 83 29 21 60 39 69 39 25 0 17 17 -16 30 -24 10 -40 11 -77 1 -26
-7 -54 -13 -64 -15 -9 -1 -24 -8 -32 -16 -9 -7 -19 -10 -23 -6 -10 9 15 56 30
56 8 0 22 9 33 21 21 23 69 47 97 48 10 1 22 -10 27 -24z m438 -22 c14 -32 16
-76 3 -101 -6 -9 -12 -30 -16 -45 -3 -16 -22 -46 -43 -68 -35 -38 -39 -39 -69
-29 -29 11 -31 14 -21 36 7 15 20 24 33 24 12 0 29 8 37 18 27 31 49 102 42
137 -10 56 12 74 34 28z m234 -34 c11 -6 26 -25 34 -42 8 -18 48 -79 89 -137
41 -58 88 -131 104 -162 16 -32 42 -77 58 -100 29 -44 54 -93 97 -188 13 -30
49 -108 80 -172 31 -64 56 -123 56 -132 0 -8 4 -17 9 -21 5 -3 15 -22 21 -43
13 -43 21 -62 45 -117 10 -22 21 -56 26 -75 4 -19 13 -55 19 -79 15 -62 7 -67
-87 -53 -80 13 -98 18 -218 59 -210 73 -425 201 -625 373 -185 159 -204 176
-243 228 -22 29 -38 55 -35 57 2 3 27 -2 55 -10 54 -16 155 -88 218 -156 128
-138 240 -208 610 -385 85 -40 178 -69 198 -61 26 10 11 100 -33 202 -40 92
-101 214 -135 270 -20 33 -53 89 -72 125 -46 84 -74 134 -145 253 -51 85 -85
161 -105 232 -4 11 -19 43 -35 72 -36 63 -31 86 14 62z m-145 -66 c-3 -10 -5
-2 -5 17 0 19 2 27 5 18 2 -10 2 -26 0 -35z m-96 -263 c4 0 13 -15 19 -34 6
-19 18 -40 26 -46 11 -10 17 -6 29 23 8 20 15 53 16 74 0 36 1 36 10 13 15
-38 1 -89 -38 -137 -35 -43 -73 -57 -73 -27 0 8 -13 29 -30 46 -16 16 -30 38
-30 48 0 10 -9 25 -21 33 -20 15 -20 15 6 35 l26 20 26 -24 c14 -13 29 -24 34
-24z m-113 -146 c45 -4 85 -10 88 -15 3 -5 -31 -9 -75 -9 -47 0 -81 4 -81 10
0 6 -18 10 -39 10 -22 0 -43 5 -47 11 -5 8 5 10 32 5 22 -3 76 -9 122 -12z
m-535 -287 c84 -171 100 -209 122 -287 9 -30 22 -75 30 -100 7 -25 23 -83 36
-130 12 -47 28 -104 36 -128 7 -23 13 -53 13 -66 0 -21 7 -24 105 -40 58 -9
131 -26 163 -37 31 -10 125 -41 207 -68 83 -27 179 -63 214 -80 36 -17 69 -31
74 -31 13 0 47 -30 47 -42 0 -5 -13 -2 -30 7 -16 8 -35 15 -43 15 -7 0 -36 11
-63 24 -28 13 -70 29 -95 35 -24 6 -60 16 -79 21 -95 26 -370 90 -410 95 -72
10 -147 35 -165 56 -12 12 -21 46 -26 96 -14 132 -36 269 -44 283 -5 8 -12 30
-16 49 -4 20 -19 68 -34 106 -15 39 -30 84 -35 101 -4 18 -36 90 -71 160 -35
71 -65 132 -67 136 -2 4 10 0 26 -8 25 -12 45 -44 105 -167z m1171 -603 c9 -3
14 -10 11 -15 -7 -10 -35 0 -35 12 0 11 3 11 24 3z m64 -44 c13 -21 9 -40 -8
-40 -5 0 -16 14 -25 30 -14 28 -14 30 2 30 10 0 24 -9 31 -20z m-260 -99 c17
-19 32 -39 32 -43 0 -4 15 -22 33 -40 65 -67 168 -190 162 -196 -7 -7 -145
133 -145 147 0 6 -9 16 -20 23 -11 7 -20 18 -20 25 0 7 -7 13 -15 13 -8 0 -15
-5 -15 -11 0 -23 -30 13 -57 70 -16 31 -31 58 -35 59 -5 2 -8 16 -8 30 l1 27
27 -35 c15 -19 42 -50 60 -69z m-821 -82 c14 -14 59 -24 363 -81 30 -5 84 -16
120 -24 36 -8 88 -20 115 -25 85 -18 218 -60 270 -85 28 -13 58 -24 68 -24 9
0 17 -4 17 -10 0 -15 -56 -12 -69 4 -6 8 -26 16 -44 19 -41 7 -97 21 -172 42
-33 10 -80 21 -105 25 -25 5 -72 13 -105 19 -120 22 -272 44 -350 50 -73 6
-145 30 -145 49 0 4 -3 17 -6 30 -5 17 -2 22 13 22 10 0 24 -5 30 -11z m850
-51 c-3 -7 -5 -2 -5 12 0 14 2 19 5 13 2 -7 2 -19 0 -25z m43 -29 c0 -5 -7 -9
-15 -9 -8 0 -15 7 -15 15 0 9 6 12 15 9 8 -4 15 -10 15 -15z m34 -34 c3 -9 0
-15 -9 -15 -8 0 -15 7 -15 15 0 8 4 15 9 15 5 0 11 -7 15 -15z m52 -71 c13
-14 24 -29 24 -35 0 -11 0 -11 -39 2 -29 10 -41 36 -24 52 10 11 14 9 39 -19z
m18 -80 c9 -3 14 -10 11 -14 -6 -10 -45 -1 -45 11 0 10 12 11 34 3z"/>
<path d="M7040 7700 c0 -5 5 -10 10 -10 6 0 10 5 10 10 0 6 -4 10 -10 10 -5 0
-10 -4 -10 -10z"/>
<path d="M7111 7514 c0 -11 3 -14 6 -6 3 7 2 16 -1 19 -3 4 -6 -2 -5 -13z"/>
<path d="M7170 7346 c0 -8 5 -18 10 -21 6 -3 10 3 10 14 0 12 -4 21 -10 21 -5
0 -10 -6 -10 -14z"/>
<path d="M7200 7263 c0 -13 5 -23 10 -23 13 0 13 11 0 30 -8 12 -10 11 -10 -7z"/>
<path d="M6610 7130 c0 -5 9 -10 21 -10 11 0 17 5 14 10 -3 6 -13 10 -21 10
-8 0 -14 -4 -14 -10z"/>
<path d="M6658 7103 c7 -3 16 -2 19 1 4 3 -2 6 -13 5 -11 0 -14 -3 -6 -6z"/>
<path d="M7666 7094 c-15 -39 -5 -87 24 -124 17 -21 30 -42 30 -48 0 -5 16
-45 36 -88 19 -44 43 -95 51 -114 9 -19 31 -68 49 -108 19 -40 34 -79 34 -86
0 -7 11 -29 24 -49 13 -19 31 -50 39 -69 8 -18 27 -59 41 -90 14 -31 26 -62
26 -67 0 -6 5 -11 10 -11 6 0 10 -8 10 -19 0 -10 9 -30 20 -44 11 -14 20 -32
20 -40 0 -9 5 -19 11 -22 7 -5 8 15 4 66 -7 81 -21 136 -39 159 -7 8 -25 44
-40 80 -53 122 -325 678 -336 685 -4 3 -11 -2 -14 -11z"/>
<path d="M6700 7070 c0 -12 28 -25 36 -17 3 3 -4 10 -15 17 -15 7 -21 7 -21 0z"/>
<path d="M6745 7030 c3 -5 11 -10 16 -10 5 0 22 -11 37 -25 27 -25 42 -32 42
-17 -1 9 -77 62 -91 62 -5 0 -7 -4 -4 -10z"/>
<path d="M6850 6960 c0 -6 7 -10 15 -10 8 0 15 2 15 4 0 2 -7 6 -15 10 -8 3
-15 1 -15 -4z"/>
<path d="M7663 6810 c0 -30 2 -43 4 -27 2 15 2 39 0 55 -2 15 -4 2 -4 -28z"/>
<path d="M6879 6745 c26 -25 53 -45 58 -45 5 0 18 -9 28 -20 25 -28 132 -100
147 -100 18 0 -39 50 -103 90 -30 19 -55 38 -57 42 -2 5 -9 8 -16 8 -6 0 -19
8 -27 18 -24 26 -58 52 -69 52 -5 0 13 -20 39 -45z"/>
<path d="M7435 6760 c3 -5 8 -10 11 -10 2 0 4 5 4 10 0 6 -5 10 -11 10 -5 0
-7 -4 -4 -10z"/>
<path d="M7671 6638 c0 -53 3 -88 9 -88 12 0 12 53 0 125 -7 46 -7 43 -9 -37z"/>
<path d="M7482 6670 c0 -14 2 -19 5 -12 2 6 2 18 0 25 -3 6 -5 1 -5 -13z"/>
<path d="M7502 6620 c0 -14 2 -19 5 -12 2 6 2 18 0 25 -3 6 -5 1 -5 -13z"/>
<path d="M7325 6620 c-3 -5 1 -10 9 -10 9 0 16 -4 16 -10 0 -5 7 -10 17 -10
13 0 11 4 -7 20 -27 23 -27 23 -35 10z"/>
<path d="M7520 6570 c0 -5 5 -10 11 -10 5 0 7 5 4 10 -3 6 -8 10 -11 10 -2 0
-4 -4 -4 -10z"/>
<path d="M7136 6560 c12 -5 25 -13 29 -19 8 -14 25 -14 25 -1 0 6 -7 10 -15
10 -8 0 -15 5 -15 10 0 6 -10 10 -22 9 l-23 0 21 -9z"/>
<path d="M7408 6563 c7 -3 16 -2 19 1 4 3 -2 6 -13 5 -11 0 -14 -3 -6 -6z"/>
<path d="M7448 6543 c7 -3 16 -2 19 1 4 3 -2 6 -13 5 -11 0 -14 -3 -6 -6z"/>
<path d="M7535 6530 c-4 -7 -17 -9 -31 -6 -14 4 -24 2 -24 -4 0 -5 11 -10 25
-10 14 0 25 -4 25 -10 0 -5 7 -10 15 -10 17 0 19 18 6 39 -6 10 -10 10 -16 1z"/>
<path d="M7270 6470 c0 -5 7 -10 16 -10 8 0 12 5 9 10 -3 6 -10 10 -16 10 -5
0 -9 -4 -9 -10z"/>
<path d="M7318 6440 c12 -5 22 -14 22 -20 0 -5 9 -10 20 -10 11 0 20 -5 20
-10 0 -6 10 -15 23 -20 12 -6 40 -24 62 -40 22 -16 48 -29 58 -30 9 0 17 -3
17 -8 0 -4 27 -22 60 -41 34 -18 70 -46 82 -62 16 -21 24 -26 30 -17 9 15 10
69 2 120 -7 40 -24 42 -24 4 0 -42 -23 -49 -71 -21 -24 13 -52 25 -61 25 -10
0 -18 5 -18 10 0 6 -5 10 -11 10 -6 0 -25 10 -42 23 -40 28 -107 66 -129 74
-10 3 -18 9 -18 14 0 5 -10 9 -22 8 l-23 0 23 -9z"/>
<path d="M7724 6155 c-6 -15 30 -100 47 -111 5 -3 9 -12 9 -20 0 -13 35 -71
51 -84 4 -3 19 -29 35 -57 15 -29 32 -53 36 -53 4 0 8 -9 8 -19 0 -11 7 -26
15 -34 8 -8 25 -35 38 -59 22 -41 58 -101 85 -143 6 -11 18 -31 24 -45 7 -14
15 -27 19 -30 3 -3 19 -27 34 -55 32 -55 93 -147 103 -155 4 -3 13 -17 21 -32
8 -15 18 -25 23 -22 5 3 5 11 -1 17 -5 7 -28 48 -51 92 -23 44 -47 87 -53 95
-13 17 -33 50 -56 95 -9 17 -32 55 -52 85 -20 30 -58 96 -84 145 -26 50 -62
111 -81 138 -19 26 -34 53 -34 60 0 8 -9 22 -20 32 -11 10 -20 24 -20 32 0 7
-7 16 -15 19 -8 4 -15 16 -15 28 0 12 -9 27 -20 34 -11 7 -20 23 -20 37 0 27
-17 34 -26 10z"/>
<path d="M8110 6082 c0 -21 38 -94 52 -100 4 -2 8 -10 8 -18 0 -8 11 -31 24
-52 13 -20 33 -57 46 -82 12 -25 28 -55 34 -67 6 -13 14 -23 19 -23 13 0 7 37
-8 50 -8 7 -15 20 -15 29 0 10 -13 35 -30 57 -16 21 -30 45 -30 52 0 8 -9 25
-20 39 -11 14 -20 34 -20 43 0 10 -7 20 -15 24 -8 3 -15 14 -15 24 0 11 -7 25
-15 32 -13 10 -15 9 -15 -8z"/>
<path d="M8216 6012 c-8 -13 3 -42 15 -42 5 0 9 -8 10 -17 0 -10 3 -13 5 -7 6
15 -22 79 -30 66z"/>
<path d="M8262 5920 c0 -14 2 -19 5 -12 2 6 2 18 0 25 -3 6 -5 1 -5 -13z"/>
<path d="M8280 5886 c0 -9 5 -16 10 -16 6 0 10 4 10 9 0 6 -4 13 -10 16 -5 3
-10 -1 -10 -9z"/>
<path d="M8300 5843 c0 -5 5 -15 10 -23 8 -12 10 -11 10 8 0 12 -4 22 -10 22
-5 0 -10 -3 -10 -7z"/>
<path d="M8340 5761 c0 -6 5 -13 10 -16 6 -3 10 1 10 9 0 9 -4 16 -10 16 -5 0
-10 -4 -10 -9z"/>
<path d="M8300 5716 c0 -7 8 -24 18 -37 10 -13 24 -39 32 -57 7 -19 18 -39 25
-45 6 -7 24 -37 39 -67 37 -74 87 -164 95 -170 3 -3 20 -33 36 -67 17 -35 33
-63 37 -63 4 0 26 -38 48 -85 22 -47 44 -85 49 -85 4 0 14 -12 22 -27 7 -16
31 -54 52 -87 21 -32 44 -74 52 -92 15 -36 17 -40 65 -94 17 -19 47 -62 65
-95 19 -33 42 -69 52 -80 10 -12 29 -36 42 -55 23 -32 24 -35 8 -63 -23 -39
-21 -54 3 -32 26 24 43 15 85 -43 35 -50 73 -71 86 -50 8 12 -3 36 -42 88 -14
19 -29 43 -32 53 -4 9 -11 17 -17 17 -5 0 -10 9 -10 19 0 11 -10 32 -23 48
-46 57 -100 138 -121 182 -12 25 -45 80 -73 122 -28 42 -63 101 -79 130 -16
30 -32 59 -37 64 -19 25 -113 171 -126 194 -35 67 -76 131 -84 131 -5 0 -5 -5
0 -12 15 -19 24 -78 13 -78 -6 0 -15 10 -20 23 -6 12 -19 36 -30 52 -11 17
-25 41 -32 55 -7 14 -15 27 -18 30 -3 3 -11 17 -19 33 -8 15 -18 27 -23 27 -4
0 -8 9 -8 20 0 11 -7 23 -15 26 -8 4 -15 12 -15 20 0 7 -13 36 -30 64 -16 28
-30 57 -30 63 0 14 -20 37 -32 37 -4 0 -8 -6 -8 -14z"/>
<path d="M8410 5640 c0 -5 5 -10 11 -10 5 0 7 5 4 10 -3 6 -8 10 -11 10 -2 0
-4 -4 -4 -10z"/>
<path d="M6545 5560 c3 -5 8 -10 11 -10 2 0 4 5 4 10 0 6 -5 10 -11 10 -5 0
-7 -4 -4 -10z"/>
<path d="M8481 5523 c-1 -13 4 -23 9 -23 6 0 10 -7 10 -16 0 -8 7 -22 15 -30
20 -21 19 -16 -9 42 -18 36 -25 43 -25 27z"/>
<path d="M7477 5504 c-11 -11 3 -24 24 -24 11 0 31 -7 45 -16 36 -24 41 -9 8
20 -28 24 -63 33 -77 20z"/>
<path d="M7626 5385 c4 -8 8 -15 10 -15 2 0 4 7 4 15 0 8 -4 15 -10 15 -5 0
-7 -7 -4 -15z"/>
<path d="M7659 5352 c5 -10 26 -31 47 -47 20 -15 55 -46 78 -69 22 -22 82 -71
131 -108 50 -37 95 -72 102 -77 6 -6 24 -13 40 -17 26 -7 27 -6 11 9 -9 9 -19
17 -23 17 -5 0 -42 32 -89 75 -6 6 -29 24 -51 40 -51 38 -198 157 -205 165 -3
4 -15 13 -28 19 -22 12 -23 11 -13 -7z"/>
<path d="M8280 5211 c0 -9 61 -107 107 -171 20 -28 83 -131 83 -136 0 -2 20
-32 45 -67 25 -36 45 -67 45 -70 0 -3 14 -20 31 -38 35 -38 52 -74 50 -106 0
-13 4 -23 10 -23 5 0 27 -11 47 -25 20 -14 43 -25 52 -25 8 0 26 -9 40 -20 30
-24 59 -28 41 -6 -8 10 -9 16 -1 21 20 12 10 25 -20 25 -33 0 -38 14 -15 44
17 22 20 50 5 41 -17 -10 -70 24 -70 46 0 11 -13 39 -28 62 -31 48 -52 102
-52 138 0 39 -28 72 -55 65 -19 -5 -29 1 -46 26 -13 17 -25 26 -27 20 -6 -19
-22 -14 -22 7 0 11 -8 26 -18 33 -9 7 -23 27 -31 43 -7 17 -19 37 -27 45 -8 8
-22 26 -32 39 -11 14 -31 25 -48 26 -16 2 -37 6 -46 10 -11 4 -18 3 -18 -4z
m320 -346 c0 -8 -7 -15 -16 -15 -14 0 -14 3 -4 15 7 8 14 15 16 15 2 0 4 -7 4
-15z"/>
<path d="M6630 5164 c0 -13 21 -44 30 -44 17 0 11 25 -10 38 -11 7 -20 10 -20
6z"/>
<path d="M7747 5083 c154 -149 181 -173 192 -173 6 0 30 -20 53 -45 23 -25 46
-45 51 -45 5 0 27 -16 50 -35 22 -19 50 -35 61 -35 17 0 15 4 -12 20 -18 11
-35 27 -38 35 -4 8 -12 15 -19 15 -7 0 -15 3 -17 8 -1 4 -37 35 -78 70 -41 35
-93 80 -115 100 -22 21 -51 45 -65 54 -14 9 -45 35 -70 58 -73 66 -68 45 7
-27z"/>
<path d="M5489 5009 c26 -21 39 -23 60 -10 23 15 4 28 -41 28 l-42 0 23 -18z"/>
<path d="M8090 5010 c0 -5 7 -10 16 -10 8 0 12 5 9 10 -3 6 -10 10 -16 10 -5
0 -9 -4 -9 -10z"/>
<path d="M8220 4906 c0 -2 7 -6 15 -10 8 -3 15 -1 15 4 0 6 -7 10 -15 10 -8 0
-15 -2 -15 -4z"/>
<path d="M8260 4880 c0 -6 7 -10 15 -10 8 0 15 2 15 4 0 2 -7 6 -15 10 -8 3
-15 1 -15 -4z"/>
<path d="M6410 4839 c-17 -4 -80 -5 -141 -3 -86 3 -110 1 -107 -8 5 -13 17
-13 346 -8 17 0 32 4 32 9 0 11 -89 18 -130 10z"/>
<path d="M8320 4830 c0 -5 5 -10 10 -10 6 0 10 5 10 10 0 6 -4 10 -10 10 -5 0
-10 -4 -10 -10z"/>
<path d="M8380 4790 c33 -26 50 -26 22 0 -12 11 -27 20 -34 20 -7 0 -2 -9 12
-20z"/>
<path d="M9354 4770 c3 -19 8 -54 12 -78 5 -29 17 -52 40 -75 18 -17 60 -66
94 -107 34 -41 94 -115 134 -165 41 -49 91 -106 111 -125 20 -19 48 -52 61
-72 13 -20 44 -61 69 -90 26 -29 65 -75 88 -101 23 -27 56 -63 74 -80 17 -18
68 -75 113 -127 46 -52 95 -106 110 -120 15 -14 71 -74 125 -133 55 -60 111
-115 127 -123 15 -8 28 -19 28 -25 0 -10 306 -319 316 -319 9 0 94 -90 94
-100 0 -6 5 -10 11 -10 15 0 85 -59 158 -132 31 -32 62 -58 68 -58 21 0 32
-26 26 -68 -5 -36 -9 -42 -29 -42 -28 0 -30 8 -10 35 12 18 12 23 -4 42 -19
24 -30 21 -30 -9 0 -21 -4 -22 -32 -7 -17 9 -23 8 -30 -6 -9 -15 -11 -15 -29
4 -25 26 -24 31 6 31 14 0 25 4 25 8 0 12 -34 42 -47 42 -6 0 -21 16 -33 35
-26 43 -50 46 -47 8 2 -23 -3 -29 -22 -31 -15 -3 -30 3 -37 13 -8 11 -20 15
-33 10 -15 -4 -21 -2 -21 9 0 16 -57 49 -71 40 -5 -3 -9 2 -9 11 0 8 -11 20
-25 25 -14 5 -25 14 -25 19 0 6 -17 15 -38 20 -20 6 -45 20 -54 31 -10 11 -27
20 -38 20 -13 0 -18 5 -14 15 4 11 2 13 -9 9 -11 -4 -32 15 -67 60 -29 36 -58
66 -65 66 -8 0 -22 12 -32 26 -27 39 -128 144 -139 144 -5 0 -18 10 -28 22
-18 20 -19 21 -32 3 -12 -16 -15 -15 -48 19 -20 20 -39 36 -43 36 -5 0 -19 18
-32 39 -12 21 -35 45 -50 54 -29 17 -181 162 -181 173 0 3 -17 23 -38 43 -35
34 -62 43 -62 20 0 -10 60 -79 103 -118 16 -14 65 -64 110 -110 45 -46 88 -89
95 -95 7 -6 48 -47 90 -91 113 -117 133 -136 187 -182 28 -22 96 -85 152 -140
107 -103 247 -223 260 -223 13 0 54 -70 48 -80 -4 -6 2 -13 12 -16 10 -3 27
-10 38 -14 11 -5 40 -14 65 -20 25 -7 59 -18 75 -25 38 -17 114 -40 183 -55
28 -7 52 -16 52 -21 0 -5 18 -12 40 -15 22 -4 43 -11 46 -15 3 -5 18 -9 35 -9
16 0 29 -4 29 -10 0 -5 8 -10 18 -10 10 0 79 -15 153 -34 159 -40 214 -50 229
-41 14 9 -41 66 -97 103 -24 15 -43 30 -43 34 0 3 -30 28 -67 54 -62 43 -242
184 -269 209 -21 19 -239 195 -268 215 -11 8 -52 45 -91 82 -49 47 -78 68 -95
68 -16 0 -35 11 -50 30 -14 17 -32 30 -42 30 -21 0 -308 282 -341 335 -13 22
-36 51 -51 64 -27 25 -33 47 -16 53 6 2 -2 16 -16 31 -20 22 -29 25 -39 17
-10 -9 -16 -7 -24 9 -6 11 -11 26 -11 34 0 7 -11 19 -24 25 -13 6 -27 21 -31
33 -9 28 -22 41 -58 57 -19 8 -27 18 -23 27 5 15 -14 40 -153 193 -36 40 -68
79 -70 85 -2 6 -33 41 -69 77 -35 36 -79 88 -97 115 -51 79 -212 271 -239 283
-13 6 -33 31 -45 55 -12 25 -36 60 -52 79 l-31 33 6 -35z m1636 -2020 c0 -5
-4 -10 -10 -10 -5 0 -10 5 -10 10 0 6 5 10 10 10 6 0 10 -4 10 -10z m294 -96
c25 -14 46 -32 46 -39 0 -7 14 -18 31 -24 26 -9 30 -15 25 -33 -3 -13 -6 -31
-6 -40 0 -10 -5 -18 -11 -18 -6 0 -9 9 -6 19 7 27 -19 34 -49 14 -22 -14 -27
-14 -35 -2 -13 21 -5 34 24 37 35 4 35 22 0 22 -37 1 -73 32 -73 64 0 14 2 26
4 26 2 0 24 -12 50 -26z m-244 -24 c0 -12 -45 -24 -60 -15 -5 3 -8 11 -5 16 8
12 65 12 65 -1z m60 -4 c0 -11 -19 -15 -25 -6 -3 5 1 10 9 10 9 0 16 -2 16 -4z
m65 -46 c4 -6 -5 -10 -20 -10 -15 0 -24 4 -20 10 3 6 12 10 20 10 8 0 17 -4
20 -10z m65 -26 c0 -8 -4 -12 -10 -9 -5 3 -10 13 -10 21 0 8 5 12 10 9 6 -3
10 -13 10 -21z m234 -30 c21 -8 20 -30 -1 -38 -19 -8 -48 17 -39 33 8 12 17
14 40 5z"/>
<path d="M7930 4782 c0 -16 39 -44 51 -37 8 6 5 13 -12 26 -26 20 -39 24 -39
11z"/>
<path d="M6063 4726 c18 -19 33 -31 35 -26 4 11 -43 60 -57 60 -5 0 5 -15 22
-34z"/>
<path d="M6283 4715 c27 -25 55 -45 63 -45 8 0 14 -4 14 -10 0 -5 10 -10 23
-10 l22 1 -25 19 c-14 11 -34 29 -46 41 -24 23 -71 49 -88 49 -6 -1 11 -21 37
-45z"/>
<path d="M8180 4731 c0 -11 65 -61 79 -61 21 0 10 15 -28 43 -42 29 -51 32
-51 18z"/>
<path d="M8466 4732 c31 -27 84 -62 93 -62 6 0 11 -4 11 -10 0 -5 9 -10 20
-10 11 0 20 -4 20 -10 0 -5 5 -10 11 -10 8 0 8 5 -1 15 -7 8 -18 15 -26 15 -7
0 -17 6 -21 14 -10 16 -88 66 -105 66 -7 0 -8 -3 -2 -8z"/>
<path d="M5038 4683 c7 -3 16 -2 19 1 4 3 -2 6 -13 5 -11 0 -14 -3 -6 -6z"/>
<path d="M6130 4660 c0 -5 5 -10 11 -10 5 0 7 5 4 10 -3 6 -8 10 -11 10 -2 0
-4 -4 -4 -10z"/>
<path d="M8292 4640 c7 -11 15 -20 19 -20 3 0 23 -16 45 -35 21 -19 43 -35 47
-35 5 0 23 -11 41 -25 18 -14 37 -25 42 -25 5 0 24 -16 43 -35 18 -19 37 -35
42 -35 6 0 25 -11 43 -25 18 -14 40 -25 50 -25 21 0 -21 37 -119 103 -38 27
-97 68 -130 93 -114 85 -146 102 -123 64z"/>
<path d="M6180 4610 c45 -39 60 -39 20 0 -17 17 -36 30 -43 30 -7 0 4 -14 23
-30z"/>
<path d="M6400 4635 c0 -2 26 -23 58 -46 31 -24 59 -45 62 -49 3 -4 12 -10 20
-14 8 -3 38 -20 65 -36 28 -17 58 -33 68 -36 9 -4 17 -10 17 -15 0 -5 7 -9 15
-9 8 0 15 -5 15 -10 0 -6 8 -14 17 -17 9 -4 28 -16 41 -27 13 -12 32 -24 43
-28 27 -11 25 16 -3 30 -39 20 -82 46 -115 70 -17 12 -34 22 -37 22 -7 0 -20
10 -51 38 -7 6 -18 12 -22 12 -5 0 -27 15 -49 33 -71 59 -144 101 -144 82z"/>
<path d="M8870 4615 c0 -8 4 -15 10 -15 5 0 7 7 4 15 -4 8 -8 15 -10 15 -2 0
-4 -7 -4 -15z"/>
<path d="M9392 4560 c0 -19 2 -27 5 -17 2 9 2 25 0 35 -3 9 -5 1 -5 -18z"/>
<path d="M6271 4537 c2 -1 15 -11 28 -22 l24 -20 -14 23 c-8 12 -20 22 -28 22
-8 0 -12 -1 -10 -3z"/>
<path d="M8920 4500 c13 -9 13 -12 -3 -24 -13 -10 -15 -16 -6 -22 13 -8 41 24
36 41 -2 5 -12 11 -23 13 -16 3 -17 1 -4 -8z"/>
<path d="M8860 4490 c0 -5 5 -10 10 -10 6 0 10 5 10 10 0 6 -4 10 -10 10 -5 0
-10 -4 -10 -10z"/>
<path d="M5478 4483 c7 -3 16 -2 19 1 4 3 -2 6 -13 5 -11 0 -14 -3 -6 -6z"/>
<path d="M5598 4433 c6 -2 18 -2 25 0 6 3 1 5 -13 5 -14 0 -19 -2 -12 -5z"/>
<path d="M5728 4383 c7 -3 16 -2 19 1 4 3 -2 6 -13 5 -11 0 -14 -3 -6 -6z"/>
<path d="M6465 4370 c10 -11 22 -20 27 -20 5 0 18 -9 30 -20 12 -11 28 -20 36
-20 12 0 11 4 -3 20 -10 11 -24 20 -32 20 -7 0 -13 5 -13 10 0 6 -9 10 -20 10
-11 0 -20 5 -20 10 0 6 -5 10 -12 10 -6 0 -3 -9 7 -20z"/>
<path d="M6575 4290 c3 -5 11 -10 16 -10 5 0 22 -11 37 -25 15 -14 33 -25 41
-25 11 0 9 6 -7 20 -12 11 -25 20 -30 20 -5 0 -15 7 -22 15 -14 17 -45 21 -35
5z"/>
<path d="M9461 4274 c0 -11 3 -14 6 -6 3 7 2 16 -1 19 -3 4 -6 -2 -5 -13z"/>
<path d="M8858 4263 c7 -3 16 -2 19 1 4 3 -2 6 -13 5 -11 0 -14 -3 -6 -6z"/>
<path d="M6135 4240 c3 -5 8 -10 11 -10 2 0 4 5 4 10 0 6 -5 10 -11 10 -5 0
-7 -4 -4 -10z"/>
<path d="M8890 4246 c0 -2 7 -7 16 -10 8 -3 12 -2 9 4 -6 10 -25 14 -25 6z"/>
<path d="M9482 4205 c0 -16 2 -22 5 -12 2 9 2 23 0 30 -3 6 -5 -1 -5 -18z"/>
<path d="M7078 4203 c7 -3 16 -2 19 1 4 3 -2 6 -13 5 -11 0 -14 -3 -6 -6z"/>
<path d="M7128 4173 c7 -3 16 -2 19 1 4 3 -2 6 -13 5 -11 0 -14 -3 -6 -6z"/>
<path d="M8874 4135 c21 -16 32 -13 21 4 -3 6 -14 11 -23 11 -15 -1 -15 -2 2
-15z"/>
<path d="M6845 4120 c3 -5 13 -10 21 -10 8 0 14 5 14 10 0 6 -9 10 -21 10 -11
0 -17 -4 -14 -10z"/>
<path d="M9035 4050 c-3 -5 1 -10 9 -10 9 0 16 5 16 10 0 6 -4 10 -9 10 -6 0
-13 -4 -16 -10z"/>
<path d="M9519 4045 c-1 -11 -1 -32 0 -47 2 -29 -17 -48 -29 -28 -4 6 -20 10
-36 8 -25 -4 -27 -5 -9 -12 11 -4 32 -14 47 -22 14 -8 36 -14 48 -14 20 0 22
3 15 37 -4 21 -13 51 -20 68 -11 25 -14 26 -16 10z"/>
<path d="M7348 4043 c7 -3 16 -2 19 1 4 3 -2 6 -13 5 -11 0 -14 -3 -6 -6z"/>
<path d="M9265 4040 c3 -5 15 -10 26 -10 10 0 19 5 19 10 0 6 -12 10 -26 10
-14 0 -23 -4 -19 -10z"/>
<path d="M7370 4026 c0 -2 7 -6 15 -10 8 -3 15 -1 15 4 0 6 -7 10 -15 10 -8 0
-15 -2 -15 -4z"/>
<path d="M9080 4020 c0 -5 7 -10 15 -10 8 0 15 5 15 10 0 6 -7 10 -15 10 -8 0
-15 -4 -15 -10z"/>
<path d="M7418 3993 c6 -2 18 -2 25 0 6 3 1 5 -13 5 -14 0 -19 -2 -12 -5z"/>
<path d="M9388 3993 c6 -2 18 -2 25 0 6 3 1 5 -13 5 -14 0 -19 -2 -12 -5z"/>
<path d="M7450 3976 c0 -3 19 -14 43 -26 23 -12 51 -28 61 -35 18 -14 18 -16
2 -34 -9 -10 -31 -22 -49 -27 l-32 -8 34 -3 c18 -3 38 0 44 6 18 18 70 12 116
-14 23 -14 50 -25 57 -25 14 0 24 -7 59 -37 7 -7 20 -13 28 -13 8 0 20 -7 27
-15 7 -8 18 -15 24 -15 26 0 66 -26 66 -42 0 -14 6 -16 30 -12 36 8 100 -20
100 -42 0 -12 7 -14 28 -10 37 9 72 -15 53 -37 -10 -13 -9 -17 8 -26 11 -6 27
-11 36 -11 8 0 18 -7 21 -15 9 -22 45 -19 51 5 3 11 13 20 23 20 25 0 35 -32
15 -46 -15 -11 -14 -14 7 -28 12 -9 27 -16 32 -16 5 0 17 -7 27 -16 19 -17 79
-12 79 7 0 5 -5 8 -11 6 -6 -1 -14 4 -16 11 -4 9 3 12 22 9 31 -4 48 -26 34
-43 -7 -9 -1 -14 21 -19 17 -4 34 -13 36 -20 4 -9 31 -13 92 -13 68 -1 89 -4
98 -17 7 -9 24 -18 39 -19 14 -2 33 -13 41 -24 8 -11 27 -22 42 -24 16 -2 31
-12 37 -25 8 -19 17 -23 50 -22 23 1 30 4 18 6 -26 5 -30 21 -8 29 16 7 78
-36 109 -74 11 -13 25 -21 33 -18 8 4 34 -7 56 -24 23 -16 47 -30 54 -30 7 0
16 -12 19 -27 10 -40 12 -43 36 -34 26 10 78 -18 102 -54 10 -15 29 -25 56
-30 23 -4 44 -13 47 -21 3 -8 10 -14 17 -14 6 0 28 -14 49 -29 35 -27 37 -30
20 -40 -16 -10 -15 -11 7 -9 17 2 28 -4 35 -17 8 -15 21 -20 50 -20 23 -1 57
-11 80 -24 22 -13 74 -42 115 -64 41 -22 94 -53 118 -68 24 -16 48 -29 53 -29
20 0 147 -71 153 -86 3 -7 15 -14 26 -14 39 0 90 -28 90 -49 0 -12 5 -21 10
-21 6 0 10 5 10 10 0 6 9 10 20 10 11 0 20 -4 20 -10 0 -5 15 -15 33 -23 17
-8 59 -26 91 -40 33 -14 68 -33 78 -41 10 -9 24 -16 31 -16 18 0 146 -55 160
-69 6 -6 23 -11 38 -11 15 0 75 -20 135 -45 59 -25 114 -45 123 -45 24 0 90
-25 103 -38 7 -7 21 -12 32 -12 11 0 28 -8 38 -17 13 -12 39 -18 82 -19 43 -1
77 -9 107 -25 24 -12 56 -22 70 -20 15 1 44 -6 65 -15 22 -10 55 -19 74 -20
70 -5 141 -17 146 -25 3 -5 31 -9 63 -9 31 0 61 -4 67 -10 5 -5 32 -12 59 -14
28 -3 93 -12 145 -21 107 -17 372 -35 402 -27 14 3 21 -2 25 -17 4 -14 13 -21
30 -21 15 0 22 4 17 11 -19 31 79 39 142 13 39 -17 168 -52 214 -59 49 -8 127
-23 166 -34 23 -6 81 -18 129 -26 49 -9 94 -20 99 -24 6 -5 47 -9 90 -10 44
-1 83 -4 88 -7 10 -6 114 -18 303 -34 262 -22 950 -6 1025 24 8 3 65 10 125
15 112 9 293 39 398 66 32 8 71 15 85 15 15 0 33 4 41 9 8 5 20 7 28 4 8 -3
-3 -16 -31 -34 -61 -38 -263 -139 -280 -139 -7 0 -24 -10 -37 -21 -13 -12 -44
-31 -69 -42 -25 -11 -65 -29 -90 -40 -70 -31 -182 -78 -210 -87 -14 -5 -56
-20 -95 -35 -103 -38 -259 -90 -345 -114 -81 -22 -244 -66 -300 -81 -19 -5
-69 -14 -110 -20 -69 -10 -154 -28 -240 -50 -68 -17 -182 -35 -340 -52 -156
-17 -1049 -17 -1220 1 -74 7 -155 15 -180 17 -25 1 -63 7 -85 13 -22 5 -58 7
-81 4 -26 -3 -44 -1 -48 6 -4 6 -23 11 -43 11 -19 0 -62 7 -95 16 -33 8 -66
13 -74 10 -7 -3 -45 2 -84 10 -38 8 -98 19 -133 25 -34 5 -84 14 -112 18 -27
5 -86 16 -130 25 -44 10 -105 21 -135 26 -30 4 -80 15 -110 24 -30 9 -84 23
-120 32 -36 9 -103 29 -150 45 -47 15 -105 33 -130 39 -25 6 -58 17 -75 25
-16 7 -84 34 -150 60 -66 25 -147 57 -180 70 -33 14 -65 25 -72 25 -7 0 -16 7
-21 16 -5 8 -27 19 -49 24 -54 13 -537 244 -663 318 -19 11 -55 31 -80 44 -56
30 -140 77 -315 178 -16 9 -57 32 -90 51 -53 29 -114 68 -180 113 -11 7 -50
33 -87 56 -38 24 -68 46 -68 50 0 4 -17 15 -37 24 -52 21 -172 99 -469 304
-38 26 -148 104 -242 173 -95 68 -199 142 -231 164 -137 94 -207 145 -230 169
-13 14 -27 26 -33 26 -18 0 -245 169 -532 395 -90 72 -113 86 -138 83 l-31 -3
34 -44 c32 -42 102 -103 282 -245 156 -122 233 -178 267 -192 19 -8 37 -18 40
-22 3 -4 16 -13 30 -20 34 -17 86 -54 139 -100 24 -20 48 -39 55 -41 12 -4 78
-52 86 -62 3 -4 22 -18 44 -33 21 -14 62 -44 90 -66 111 -88 142 -111 170
-128 16 -9 53 -36 82 -59 30 -24 59 -43 65 -43 6 0 29 -16 50 -35 22 -19 45
-35 52 -35 7 0 31 -16 53 -37 21 -20 46 -37 55 -38 9 0 31 -13 49 -28 17 -15
37 -27 45 -27 7 0 15 -7 18 -15 4 -8 24 -23 45 -34 22 -11 42 -27 45 -36 4 -8
15 -15 25 -15 10 0 61 -31 113 -70 52 -38 99 -70 105 -70 6 0 21 -9 34 -20 13
-11 32 -20 43 -20 10 0 31 -13 46 -29 20 -21 34 -28 49 -25 14 4 24 -1 32 -16
6 -12 28 -28 48 -37 20 -8 46 -23 57 -32 11 -10 30 -18 42 -19 12 0 32 -10 44
-21 12 -11 27 -17 34 -15 7 3 26 -6 43 -20 16 -15 42 -26 56 -26 15 0 29 -6
32 -14 3 -8 18 -16 33 -19 16 -3 42 -20 59 -36 17 -17 38 -31 48 -31 46 0 94
-24 108 -55 19 -39 41 -59 56 -50 6 4 22 0 35 -9 13 -9 36 -16 50 -16 14 0 25
-6 25 -14 0 -9 12 -13 37 -12 30 1 40 -4 48 -21 7 -16 15 -21 27 -17 25 8 60
-5 55 -20 -6 -15 52 -46 83 -46 11 0 29 -9 40 -20 11 -11 29 -20 41 -20 12 0
29 -10 39 -23 14 -18 37 -27 92 -36 85 -15 142 -37 133 -50 -5 -10 54 -31 86
-31 9 0 22 -7 29 -15 7 -8 23 -15 36 -15 12 0 26 -4 29 -10 3 -5 16 -10 27
-10 26 0 98 -31 98 -42 0 -4 7 -8 16 -8 8 0 41 -12 72 -26 37 -17 66 -24 84
-20 18 3 30 0 35 -8 5 -8 43 -20 88 -27 44 -7 85 -20 91 -27 9 -12 14 -12 31
-2 18 12 25 10 49 -9 19 -15 31 -18 38 -11 15 15 52 12 66 -5 7 -8 25 -15 41
-15 20 0 27 -4 23 -14 -4 -11 7 -16 43 -21 26 -4 75 -16 107 -26 74 -24 151
-26 142 -4 -3 10 1 15 14 15 10 0 21 -4 24 -8 3 -5 45 -8 93 -7 58 2 97 -2
115 -11 15 -8 52 -14 82 -14 30 0 58 -4 61 -10 3 -5 32 -10 63 -10 31 -1 89
-6 127 -12 39 -6 106 -12 150 -13 48 -2 95 -9 119 -19 21 -10 44 -15 50 -13 7
3 75 1 152 -5 76 -5 164 -9 194 -8 31 0 67 -3 80 -8 23 -9 22 -10 -15 -15 -22
-3 -75 -5 -119 -6 -43 0 -84 -5 -89 -10 -8 -8 87 -11 323 -11 303 1 332 2 301
15 -18 8 -54 16 -80 16 -36 1 -30 3 29 9 41 5 100 11 131 14 55 6 57 6 63 -19
6 -22 12 -25 47 -25 22 0 50 5 62 12 21 11 21 11 2 19 -11 4 -38 8 -60 9 l-40
2 40 9 c22 4 61 8 86 8 26 1 59 8 75 16 18 9 42 12 69 8 22 -3 77 2 120 10 44
9 110 19 147 22 37 4 91 13 120 22 66 18 130 33 183 40 22 3 45 9 50 13 6 4
34 11 64 15 52 7 54 6 48 -14 -5 -21 7 -29 18 -11 3 5 20 10 36 10 19 0 28 4
23 11 -3 6 -17 8 -29 5 -13 -3 -27 -2 -30 4 -3 5 0 10 8 10 8 0 28 7 43 15 39
20 54 19 54 -5 0 -24 38 -28 46 -5 4 8 17 15 29 15 13 0 27 5 30 10 3 6 22 10
41 10 19 0 56 11 82 25 26 14 64 25 84 25 21 0 38 5 38 10 0 6 -4 10 -10 10
-5 0 -10 5 -10 10 0 6 20 10 44 10 63 0 106 11 106 26 0 8 10 14 25 14 18 0
23 4 18 16 -5 14 0 15 36 9 32 -5 52 -2 85 14 24 11 56 23 70 27 14 3 26 10
26 15 0 5 12 14 28 20 51 19 151 70 157 79 3 4 28 16 55 25 28 9 50 21 50 26
0 5 6 9 14 9 28 0 322 162 426 235 27 19 45 39 45 51 0 21 29 21 -580 13 -241
-4 -361 2 -635 27 -30 2 -134 11 -231 19 -97 8 -188 19 -202 24 -14 5 -52 13
-84 16 -47 6 -61 4 -72 -9 -14 -17 -105 -23 -115 -7 -3 4 -40 9 -83 10 -53 1
-83 7 -94 17 -13 11 -27 13 -55 8 l-38 -7 49 -14 c28 -7 75 -18 105 -23 30 -5
71 -12 90 -15 19 -3 82 -14 140 -25 58 -10 139 -23 180 -30 41 -6 95 -15 120
-19 25 -5 88 -9 140 -10 52 -1 122 -6 155 -11 33 -5 134 -12 225 -16 91 -4
179 -8 195 -9 17 -1 101 -6 188 -10 86 -4 157 -12 157 -16 0 -5 -11 -9 -24 -9
-14 0 -28 -4 -31 -10 -3 -5 -18 -10 -33 -10 -15 0 -59 -7 -97 -15 -39 -8 -95
-15 -126 -15 -31 0 -72 -6 -90 -14 -19 -8 -47 -12 -62 -9 -15 3 -54 0 -85 -6
-31 -6 -93 -13 -137 -16 -44 -3 -120 -9 -170 -13 -114 -9 -445 -8 -640 2 -114
6 -161 13 -197 28 -37 16 -50 17 -68 8 -17 -9 -26 -8 -46 4 -19 13 -27 14 -44
4 -16 -10 -27 -9 -66 11 -36 17 -65 22 -117 22 -47 0 -84 6 -111 18 -30 14
-56 17 -98 14 -43 -4 -64 -1 -83 11 -13 9 -44 16 -69 16 -25 0 -48 5 -52 11
-3 6 -17 8 -31 4 -14 -3 -33 -3 -44 0 -20 7 -26 39 -9 50 16 10 1 25 -26 25
-27 0 -32 -15 -7 -24 10 -4 13 -10 7 -15 -11 -11 -168 16 -211 36 -34 16 -183
156 -183 172 0 5 -12 12 -27 16 -15 3 -39 18 -54 33 -89 91 -128 117 -112 75
8 -20 95 -102 109 -103 6 0 19 -16 30 -36 10 -20 31 -42 47 -50 15 -8 27 -18
27 -22 0 -4 15 -16 34 -26 27 -14 56 -51 56 -71 0 -7 -127 -4 -180 5 -30 5
-93 11 -140 14 -47 3 -98 10 -113 15 -16 6 -50 11 -77 11 -27 0 -51 4 -54 9
-3 4 -38 11 -78 14 -72 5 -121 15 -228 44 -30 8 -75 19 -100 23 -25 4 -58 12
-75 18 -30 11 -44 15 -190 51 -44 11 -96 25 -115 32 -91 32 -139 48 -185 62
-59 18 -141 51 -208 84 -27 12 -56 23 -64 23 -8 0 -27 6 -41 14 -34 18 -111
52 -165 73 -23 9 -46 21 -52 28 -5 6 -30 19 -55 29 -25 9 -63 30 -85 45 -22
15 -61 35 -86 44 -56 21 -296 142 -376 190 -32 19 -105 60 -163 92 -104 57
-152 86 -283 174 -38 25 -92 62 -121 81 -118 78 -139 92 -184 127 -26 19 -50
43 -54 53 -4 11 -26 21 -67 29 -33 7 -116 30 -183 51 -133 43 -131 42 -231 88
-37 18 -73 32 -80 32 -6 0 -57 18 -112 41 -55 22 -118 48 -140 56 -38 15 -93
39 -230 103 -33 15 -76 34 -95 41 -19 7 -80 37 -135 65 -213 110 -263 134
-281 134 -8 0 -14 -2 -14 -4z m1438 -638 c-7 -19 -38 -22 -38 -4 0 10 9 16 21
16 12 0 19 -5 17 -12z m3869 -2259 c-11 -7 -40 -7 -85 -1 l-67 9 85 1 c63 1
80 -1 67 -9z"/>
<path d="M6940 3820 c36 -4 74 -4 85 1 12 5 -13 7 -65 7 l-85 -1 65 -7z"/>
<path d="M7068 3823 c6 -2 18 -2 25 0 6 3 1 5 -13 5 -14 0 -19 -2 -12 -5z"/>
<path d="M7143 3820 c16 -5 56 -5 90 -1 l62 8 -90 1 c-64 0 -82 -2 -62 -8z"/>
<path d="M7640 3801 c0 -15 16 -22 34 -15 25 9 19 24 -9 24 -14 0 -25 -4 -25
-9z"/>
<path d="M9740 3769 c0 -5 5 -7 10 -4 6 3 10 8 10 11 0 2 -4 4 -10 4 -5 0 -10
-5 -10 -11z"/>
<path d="M7858 3703 c7 -3 16 -2 19 1 4 3 -2 6 -13 5 -11 0 -14 -3 -6 -6z"/>
<path d="M7975 3660 c-3 -5 1 -10 10 -10 9 0 13 5 10 10 -3 6 -8 10 -10 10 -2
0 -7 -4 -10 -10z"/>
<path d="M9910 3610 c0 -5 5 -10 11 -10 5 0 7 5 4 10 -3 6 -8 10 -11 10 -2 0
-4 -4 -4 -10z"/>
<path d="M8610 3370 c0 -5 5 -10 11 -10 5 0 7 5 4 10 -3 6 -8 10 -11 10 -2 0
-4 -4 -4 -10z"/>
<path d="M9257 3273 c-14 -14 -6 -40 16 -51 12 -6 38 -22 58 -34 101 -64 130
-80 136 -75 3 4 -11 21 -31 39 -20 17 -36 35 -36 40 0 12 34 10 47 -3 5 -5 32
-9 59 -7 45 3 47 4 19 12 -16 4 -39 11 -50 16 -11 4 -47 15 -80 25 -33 10 -69
24 -80 31 -21 15 -47 18 -58 7z"/>
<path d="M9598 3163 c6 -2 18 -2 25 0 6 3 1 5 -13 5 -14 0 -19 -2 -12 -5z"/>
<path d="M9733 3133 c15 -2 27 -9 27 -14 0 -5 10 -8 23 -8 16 1 18 2 5 6 -10
2 -18 9 -18 14 0 5 -15 8 -32 8 -31 -2 -31 -2 -5 -6z"/>
<path d="M9116 3121 c-8 -13 40 -42 58 -35 24 9 19 23 -10 34 -31 12 -41 12
-48 1z"/>
<path d="M9051 3084 c0 -11 3 -14 6 -6 3 7 2 16 -1 19 -3 4 -6 -2 -5 -13z"/>
<path d="M9500 3090 c0 -5 5 -10 11 -10 5 0 7 5 4 10 -3 6 -8 10 -11 10 -2 0
-4 -4 -4 -10z"/>
<path d="M9815 3090 c3 -5 13 -10 21 -10 8 0 14 -4 14 -10 0 -5 7 -10 16 -10
12 0 10 5 -9 20 -26 21 -53 27 -42 10z"/>
<path d="M9538 3063 c6 -2 18 -2 25 0 6 3 1 5 -13 5 -14 0 -19 -2 -12 -5z"/>
<path d="M9265 3040 c3 -5 15 -10 26 -10 10 0 19 5 19 10 0 6 -12 10 -26 10
-14 0 -23 -4 -19 -10z"/>
<path d="M9585 3040 c3 -5 8 -10 11 -10 2 0 4 5 4 10 0 6 -5 10 -11 10 -5 0
-7 -4 -4 -10z"/>
<path d="M9628 3013 c6 -2 18 -2 25 0 6 3 1 5 -13 5 -14 0 -19 -2 -12 -5z"/>
<path d="M9665 2990 c4 -6 11 -8 16 -5 14 9 11 15 -7 15 -8 0 -12 -5 -9 -10z"/>
<path d="M10060 2970 c0 -5 9 -10 21 -10 11 0 17 5 14 10 -3 6 -13 10 -21 10
-8 0 -14 -4 -14 -10z"/>
<path d="M9748 2943 c7 -3 16 -2 19 1 4 3 -2 6 -13 5 -11 0 -14 -3 -6 -6z"/>
<path d="M10100 2946 c0 -2 9 -6 20 -9 11 -3 20 -1 20 4 0 5 -9 9 -20 9 -11 0
-20 -2 -20 -4z"/>
<path d="M9780 2920 c0 -5 10 -10 23 -10 18 0 19 2 7 10 -19 13 -30 13 -30 0z"/>
<path d="M10170 2920 c0 -5 5 -10 11 -10 5 0 7 5 4 10 -3 6 -8 10 -11 10 -2 0
-4 -4 -4 -10z"/>
<path d="M9838 2893 c7 -3 16 -2 19 1 4 3 -2 6 -13 5 -11 0 -14 -3 -6 -6z"/>
<path d="M9477 2874 c-13 -13 7 -34 32 -33 14 0 20 3 14 6 -7 2 -13 11 -13 19
0 14 -21 19 -33 8z"/>
<path d="M10255 2870 c3 -5 13 -10 21 -10 8 0 14 5 14 10 0 6 -9 10 -21 10
-11 0 -17 -4 -14 -10z"/>
<path d="M10313 2843 c9 -2 23 -2 30 0 6 3 -1 5 -18 5 -16 0 -22 -2 -12 -5z"/>
<path d="M10365 2820 c3 -5 13 -10 21 -10 8 0 14 5 14 10 0 6 -9 10 -21 10
-11 0 -17 -4 -14 -10z"/>
<path d="M10410 2800 c0 -5 12 -10 28 -10 21 0 24 2 12 10 -20 13 -40 13 -40
0z"/>
<path d="M10470 2770 c20 -13 40 -13 40 0 0 6 -12 10 -27 10 -22 0 -25 -2 -13
-10z"/>
<path d="M10520 2750 c0 -5 14 -10 30 -10 17 0 30 -4 30 -10 0 -5 12 -10 28
-10 24 0 23 2 -17 20 -48 22 -71 25 -71 10z"/>
<path d="M11790 2720 c0 -5 11 -19 24 -32 13 -13 39 -48 58 -78 20 -30 45 -65
57 -77 11 -12 21 -26 21 -30 0 -15 62 -63 81 -63 10 0 19 -4 19 -10 0 -5 7
-10 15 -10 27 0 16 19 -25 45 -22 14 -40 31 -40 39 0 8 -8 17 -17 20 -10 4
-13 10 -7 16 11 11 127 -15 132 -30 2 -5 36 -19 75 -30 40 -12 86 -28 104 -36
17 -8 35 -14 40 -14 11 0 186 -55 308 -97 55 -19 130 -41 166 -48 37 -8 108
-27 158 -44 50 -17 95 -30 99 -29 4 1 14 -1 22 -5 8 -3 26 -8 40 -10 14 -3 58
-14 97 -26 40 -12 91 -21 113 -21 22 0 40 -4 40 -10 0 -5 19 -10 43 -9 l42 1
-35 10 c-19 6 -44 14 -55 19 -11 4 -31 9 -45 11 -19 2 -25 9 -25 28 0 31 -11
40 -50 40 -17 0 -39 6 -50 14 -11 7 -42 16 -70 20 -27 4 -97 25 -155 46 -58
22 -122 42 -143 46 -20 3 -40 10 -43 15 -3 5 -15 9 -27 9 -21 0 -90 21 -132
39 -11 5 -66 23 -122 41 -57 17 -103 35 -103 40 0 4 -24 13 -52 20 -48 10 -96
26 -198 65 -19 8 -69 26 -110 41 -41 15 -93 35 -115 44 -22 10 -55 21 -72 25
-18 3 -35 11 -38 16 -8 12 -25 12 -25 -1z"/>
<path d="M10650 2700 c0 -5 9 -10 19 -10 11 0 23 -4 26 -10 3 -5 21 -9 38 -9
27 2 28 2 7 6 -13 3 -33 11 -44 19 -24 16 -46 18 -46 4z"/>
<path d="M10248 2673 c7 -3 16 -2 19 1 4 3 -2 6 -13 5 -11 0 -14 -3 -6 -6z"/>
<path d="M10300 2650 c0 -5 5 -10 11 -10 5 0 7 5 4 10 -3 6 -8 10 -11 10 -2 0
-4 -4 -4 -10z"/>
<path d="M10358 2623 c7 -3 16 -2 19 1 4 3 -2 6 -13 5 -11 0 -14 -3 -6 -6z"/>
<path d="M10405 2600 c3 -5 13 -10 21 -10 8 0 12 5 9 10 -3 6 -13 10 -21 10
-8 0 -12 -4 -9 -10z"/>
<path d="M10458 2573 c6 -2 18 -2 25 0 6 3 1 5 -13 5 -14 0 -19 -2 -12 -5z"/>
<path d="M10516 2551 c5 -5 27 -12 49 -15 22 -3 31 -3 20 0 -11 3 -24 10 -29
15 -6 5 -19 9 -30 9 -12 0 -16 -3 -10 -9z"/>
<path d="M10620 2510 c0 -5 5 -10 10 -10 6 0 10 5 10 10 0 6 -4 10 -10 10 -5
0 -10 -4 -10 -10z"/>
<path d="M10680 2480 c-12 -8 -10 -10 8 -10 13 0 20 4 17 10 -7 12 -6 12 -25
0z"/>
<path d="M10740 2448 c14 -5 33 -14 42 -19 10 -5 28 -9 40 -9 19 1 15 5 -16
20 -22 11 -51 20 -65 19 l-26 0 25 -11z"/>
<path d="M12020 2411 c0 -5 7 -14 15 -21 13 -10 15 -9 15 9 0 12 -6 21 -15 21
-8 0 -15 -4 -15 -9z"/>
<path d="M10877 2397 c17 -7 35 -15 39 -19 11 -11 34 -10 34 2 0 6 -9 10 -20
10 -11 0 -20 5 -20 10 0 6 -15 10 -32 9 l-33 -1 32 -11z"/>
<path d="M12085 2403 c6 -4 23 -25 38 -45 23 -32 57 -51 57 -33 0 8 -81 80
-94 83 -7 2 -7 1 -1 -5z"/>
<path d="M12060 2360 c0 -5 5 -10 11 -10 5 0 7 5 4 10 -3 6 -8 10 -11 10 -2 0
-4 -4 -4 -10z"/>
<path d="M12100 2310 c0 -5 5 -10 11 -10 5 0 7 5 4 10 -3 6 -8 10 -11 10 -2 0
-4 -4 -4 -10z"/>
<path d="M10650 2303 c8 -4 21 -15 30 -26 14 -17 17 -18 29 -3 11 13 9 17 -14
26 -14 5 -34 10 -43 9 -14 0 -14 -2 -2 -6z"/>
<path d="M12125 2280 c3 -5 8 -10 11 -10 2 0 4 5 4 10 0 6 -5 10 -11 10 -5 0
-7 -4 -4 -10z"/>
<path d="M11276 2261 c-6 -9 49 -25 127 -36 32 -5 47 -4 47 4 0 6 -15 11 -34
11 -18 0 -47 7 -62 15 -32 17 -70 20 -78 6z"/>
<path d="M12150 2252 c0 -5 9 -17 20 -27 11 -10 20 -22 20 -26 0 -4 14 -23 31
-41 32 -35 50 -68 42 -80 -7 -13 -40 -9 -51 5 -8 9 -35 12 -88 10 -90 -3 -113
-13 -30 -13 32 0 65 -4 74 -9 26 -14 175 -26 171 -14 -2 6 -37 45 -76 88 -40
42 -73 81 -73 86 0 4 -9 13 -20 19 -11 6 -20 7 -20 2z"/>
<path d="M11470 2210 c0 -5 16 -10 36 -10 21 0 33 4 29 10 -3 6 -19 10 -36 10
-16 0 -29 -4 -29 -10z"/>
<path d="M13320 2211 c0 -10 38 -18 63 -13 9 2 15 8 12 13 -8 12 -75 12 -75 0z"/>
<path d="M11546 2192 c-9 -16 25 -23 59 -13 21 7 24 10 10 10 -11 1 -30 4 -41
7 -12 3 -25 1 -28 -4z"/>
<path d="M13443 2183 c9 -2 23 -2 30 0 6 3 -1 5 -18 5 -16 0 -22 -2 -12 -5z"/>
<path d="M11650 2160 c0 -5 9 -10 20 -10 11 0 20 5 20 10 0 6 -9 10 -20 10
-11 0 -20 -4 -20 -10z"/>
<path d="M13540 2166 c0 -2 7 -6 15 -10 8 -3 15 -1 15 4 0 6 -7 10 -15 10 -8
0 -15 -2 -15 -4z"/>
<path d="M11720 2145 c7 -8 19 -15 26 -15 8 0 11 6 8 15 -4 8 -15 15 -26 15
-17 0 -18 -3 -8 -15z"/>
<path d="M11803 2133 c15 -2 37 -2 50 0 12 2 0 4 -28 4 -27 0 -38 -2 -22 -4z"/>
<path d="M13703 2133 c9 -2 23 -2 30 0 6 3 -1 5 -18 5 -16 0 -22 -2 -12 -5z"/>
<path d="M11915 2110 c3 -5 17 -10 30 -10 13 0 27 5 30 10 4 6 -8 10 -30 10
-22 0 -34 -4 -30 -10z"/>
<path d="M13475 2110 c3 -5 27 -10 53 -10 34 0 43 3 32 10 -20 13 -93 13 -85
0z"/>
<path d="M13790 2110 c0 -5 6 -10 14 -10 8 0 18 5 21 10 3 6 -3 10 -14 10 -12
0 -21 -4 -21 -10z"/>
<path d="M13315 2040 c-8 -12 17 -23 41 -18 10 1 19 9 22 16 5 15 -54 17 -63
2z"/>
<path d="M12895 2009 c-52 -13 -68 -29 -29 -31 48 -2 65 1 80 16 27 28 18 31
-51 15z"/>
<path d="M12980 1991 c0 -5 6 -14 14 -20 16 -13 32 2 21 19 -8 12 -35 13 -35
1z"/>
<path d="M13505 1903 c32 -31 85 -53 133 -55 26 -1 54 -5 63 -9 8 -4 22 -3 30
2 11 7 9 9 -8 9 -25 0 -39 15 -23 25 18 11 11 23 -22 34 -25 9 -35 8 -47 -3
-30 -26 -59 -29 -83 -7 -12 12 -30 21 -41 21 -17 0 -17 -1 -2 -17z"/>
<path d="M13737 1893 c-10 -9 13 -33 30 -33 10 0 13 6 9 16 -3 9 -6 18 -6 20
0 7 -26 5 -33 -3z"/>
<path d="M13928 1843 c7 -3 16 -2 19 1 4 3 -2 6 -13 5 -11 0 -14 -3 -6 -6z"/>
<path d="M13982 1211 c-19 -12 8 -22 38 -14 16 4 18 8 8 14 -17 11 -29 11 -46
0z"/>
<path d="M11410 1170 c0 -17 6 -20 38 -19 31 0 33 2 16 9 -12 5 -25 13 -29 19
-10 18 -25 12 -25 -9z"/>
<path d="M13780 1160 c-21 -7 -19 -8 18 -9 23 -1 42 4 42 9 0 12 -24 12 -60 0z"/>
<path d="M11805 1110 c3 -5 17 -10 31 -10 14 0 22 4 19 10 -3 6 -17 10 -31 10
-14 0 -22 -4 -19 -10z"/>
<path d="M13395 1100 c-15 -17 -16 -20 -3 -20 9 0 28 6 42 14 22 11 24 15 11
20 -25 9 -30 8 -50 -14z"/>
<path d="M11938 1103 c7 -3 16 -2 19 1 4 3 -2 6 -13 5 -11 0 -14 -3 -6 -6z"/>
<path d="M13493 1103 c9 -2 25 -2 35 0 9 3 1 5 -18 5 -19 0 -27 -2 -17 -5z"/>
</g>
</svg>
